<?xml version="1.0" encoding="UTF-8"?><svg xmlns="http://www.w3.org/2000/svg" xmlns:xlink="http://www.w3.org/1999/xlink" contentScriptType="text/ecmascript" width="224.87999pt" zoomAndPan="magnify" contentStyleType="text/css" viewBox="0 0 224.87999 74.999997" height="74.999997pt" preserveAspectRatio="xMidYMid meet" version="1.2"><defs><g/><clipPath xml:id="clip1" id="clip1"><path d="M 7.496094 7.515625 L 54.148438 7.515625 L 54.148438 66.933594 L 7.496094 66.933594 Z M 7.496094 7.515625 "/></clipPath></defs><g xml:id="surface1" id="surface1"><g clip-rule="nonzero" clip-path="url(#clip1)"><path style=" stroke:none;fill-rule:evenodd;fill:rgb(100%,24.708557%,24.708557%);fill-opacity:1;" d="M 22.992188 51.355469 C 23.808594 50.796875 24.6875 50.324219 25.613281 49.949219 L 25.613281 60.34375 L 22.992188 60.34375 Z M 30.824219 7.683594 L 7.5 48.46875 L 18.503906 48.46875 L 18.339844 48.46875 L 19.003906 52.421875 L 19.007812 52.421875 C 19.46875 47.648438 21.699219 44.246094 24.363281 42.757812 C 24.363281 37.632812 25.039062 31.042969 30.816406 23.957031 L 30.820312 23.964844 L 30.828125 23.957031 C 36.601562 31.042969 37.277344 37.632812 37.277344 42.757812 C 39.945312 44.246094 42.171875 47.648438 42.632812 52.421875 L 42.636719 52.421875 L 43.300781 48.46875 L 43.140625 48.46875 L 54.144531 48.46875 L 30.820312 7.683594 Z M 30.824219 40.039062 C 32.507812 40.039062 33.882812 38.660156 33.882812 36.972656 C 33.882812 35.28125 32.507812 33.90625 30.824219 33.90625 C 29.140625 33.90625 27.765625 35.28125 27.765625 36.972656 C 27.765625 38.660156 29.140625 40.039062 30.824219 40.039062 Z M 36.03125 49.949219 C 36.957031 50.324219 37.839844 50.796875 38.65625 51.355469 L 38.65625 60.34375 L 36.03125 60.34375 Z M 30.824219 48.9375 C 31.265625 48.9375 31.703125 48.957031 32.136719 49 L 32.136719 66.769531 L 29.515625 66.769531 L 29.515625 49 C 29.945312 48.960938 30.382812 48.9375 30.824219 48.9375 Z M 30.824219 48.9375 "/></g><g style="fill:rgb(3.919983%,14.898682%,20.779419%);fill-opacity:1;"><g transform="translate(54.913684, 37.389406)"><path style="stroke:none;" d="M 1.34375 -11.3125 L 6.484375 -11.3125 C 7.710938 -11.3125 8.796875 -11.078125 9.734375 -10.609375 C 10.671875 -10.140625 11.398438 -9.476562 11.921875 -8.625 C 12.453125 -7.769531 12.71875 -6.78125 12.71875 -5.65625 C 12.71875 -4.519531 12.453125 -3.523438 11.921875 -2.671875 C 11.398438 -1.828125 10.671875 -1.171875 9.734375 -0.703125 C 8.796875 -0.234375 7.710938 0 6.484375 0 L 1.34375 0 Z M 6.34375 -2.15625 C 7.476562 -2.15625 8.378906 -2.46875 9.046875 -3.09375 C 9.722656 -3.71875 10.0625 -4.570312 10.0625 -5.65625 C 10.0625 -6.726562 9.722656 -7.578125 9.046875 -8.203125 C 8.378906 -8.835938 7.476562 -9.15625 6.34375 -9.15625 L 3.953125 -9.15625 L 3.953125 -2.15625 Z M 6.34375 -2.15625 "/></g></g><g style="fill:rgb(3.919983%,14.898682%,20.779419%);fill-opacity:1;"><g transform="translate(73.45657, 37.389406)"><path style="stroke:none;" d="M 1.34375 -11.3125 L 3.953125 -11.3125 L 3.953125 0 L 1.34375 0 Z M 1.34375 -11.3125 "/></g></g><g style="fill:rgb(3.919983%,14.898682%,20.779419%);fill-opacity:1;"><g transform="translate(83.955793, 37.389406)"><path style="stroke:none;" d="M 8.984375 -5.828125 L 11.375 -5.828125 L 11.375 -1.25 C 10.757812 -0.78125 10.046875 -0.421875 9.234375 -0.171875 C 8.429688 0.0664062 7.617188 0.1875 6.796875 0.1875 C 5.628906 0.1875 4.578125 -0.0625 3.640625 -0.5625 C 2.703125 -1.0625 1.960938 -1.753906 1.421875 -2.640625 C 0.890625 -3.523438 0.625 -4.53125 0.625 -5.65625 C 0.625 -6.769531 0.890625 -7.769531 1.421875 -8.65625 C 1.960938 -9.550781 2.707031 -10.25 3.65625 -10.75 C 4.601562 -11.25 5.664062 -11.5 6.84375 -11.5 C 7.84375 -11.5 8.742188 -11.332031 9.546875 -11 C 10.359375 -10.664062 11.035156 -10.179688 11.578125 -9.546875 L 9.90625 -8 C 9.09375 -8.851562 8.117188 -9.28125 6.984375 -9.28125 C 6.253906 -9.28125 5.609375 -9.128906 5.046875 -8.828125 C 4.492188 -8.523438 4.0625 -8.097656 3.75 -7.546875 C 3.4375 -6.992188 3.28125 -6.363281 3.28125 -5.65625 C 3.28125 -4.957031 3.4375 -4.332031 3.75 -3.78125 C 4.0625 -3.226562 4.492188 -2.796875 5.046875 -2.484375 C 5.597656 -2.179688 6.234375 -2.03125 6.953125 -2.03125 C 7.703125 -2.03125 8.378906 -2.191406 8.984375 -2.515625 Z M 8.984375 -5.828125 "/></g></g><g style="fill:rgb(3.919983%,14.898682%,20.779419%);fill-opacity:1;"><g transform="translate(101.610327, 37.389406)"><path style="stroke:none;" d="M 1.34375 -11.3125 L 3.953125 -11.3125 L 3.953125 0 L 1.34375 0 Z M 1.34375 -11.3125 "/></g></g><g style="fill:rgb(3.919983%,14.898682%,20.779419%);fill-opacity:1;"><g transform="translate(112.109549, 37.389406)"><path style="stroke:none;" d="M 5.0625 0.1875 C 4.164062 0.1875 3.300781 0.0664062 2.46875 -0.171875 C 1.632812 -0.410156 0.960938 -0.722656 0.453125 -1.109375 L 1.34375 -3.078125 C 1.820312 -2.722656 2.394531 -2.4375 3.0625 -2.21875 C 3.738281 -2.007812 4.410156 -1.90625 5.078125 -1.90625 C 5.816406 -1.90625 6.363281 -2.015625 6.71875 -2.234375 C 7.070312 -2.453125 7.25 -2.75 7.25 -3.125 C 7.25 -3.382812 7.144531 -3.601562 6.9375 -3.78125 C 6.726562 -3.96875 6.457031 -4.113281 6.125 -4.21875 C 5.800781 -4.320312 5.359375 -4.441406 4.796875 -4.578125 C 3.929688 -4.773438 3.222656 -4.976562 2.671875 -5.1875 C 2.128906 -5.394531 1.660156 -5.722656 1.265625 -6.171875 C 0.867188 -6.617188 0.671875 -7.222656 0.671875 -7.984375 C 0.671875 -8.640625 0.847656 -9.234375 1.203125 -9.765625 C 1.566406 -10.296875 2.101562 -10.71875 2.8125 -11.03125 C 3.53125 -11.34375 4.40625 -11.5 5.4375 -11.5 C 6.164062 -11.5 6.875 -11.410156 7.5625 -11.234375 C 8.25 -11.066406 8.851562 -10.820312 9.375 -10.5 L 8.5625 -8.515625 C 7.519531 -9.109375 6.472656 -9.40625 5.421875 -9.40625 C 4.691406 -9.40625 4.148438 -9.285156 3.796875 -9.046875 C 3.453125 -8.804688 3.28125 -8.492188 3.28125 -8.109375 C 3.28125 -7.722656 3.476562 -7.4375 3.875 -7.25 C 4.28125 -7.0625 4.898438 -6.875 5.734375 -6.6875 C 6.597656 -6.476562 7.300781 -6.269531 7.84375 -6.0625 C 8.394531 -5.863281 8.867188 -5.539062 9.265625 -5.09375 C 9.660156 -4.65625 9.859375 -4.0625 9.859375 -3.3125 C 9.859375 -2.664062 9.675781 -2.078125 9.3125 -1.546875 C 8.945312 -1.015625 8.40625 -0.59375 7.6875 -0.28125 C 6.96875 0.03125 6.09375 0.1875 5.0625 0.1875 Z M 5.0625 0.1875 "/></g></g><g style="fill:rgb(3.919983%,14.898682%,20.779419%);fill-opacity:1;"><g transform="translate(127.615868, 37.389406)"><path style="stroke:none;" d="M 11.71875 -11.3125 L 11.71875 0 L 9.09375 0 L 9.09375 -4.640625 L 3.953125 -4.640625 L 3.953125 0 L 1.34375 0 L 1.34375 -11.3125 L 3.953125 -11.3125 L 3.953125 -6.84375 L 9.09375 -6.84375 L 9.09375 -11.3125 Z M 11.71875 -11.3125 "/></g></g><g style="fill:rgb(3.919983%,14.898682%,20.779419%);fill-opacity:1;"><g transform="translate(145.86802, 37.389406)"><path style="stroke:none;" d="M 6.359375 0.1875 C 4.742188 0.1875 3.488281 -0.253906 2.59375 -1.140625 C 1.695312 -2.035156 1.25 -3.3125 1.25 -4.96875 L 1.25 -11.3125 L 3.859375 -11.3125 L 3.859375 -5.078125 C 3.859375 -3.046875 4.695312 -2.03125 6.375 -2.03125 C 7.195312 -2.03125 7.820312 -2.273438 8.25 -2.765625 C 8.6875 -3.253906 8.90625 -4.023438 8.90625 -5.078125 L 8.90625 -11.3125 L 11.484375 -11.3125 L 11.484375 -4.96875 C 11.484375 -3.3125 11.03125 -2.035156 10.125 -1.140625 C 9.226562 -0.253906 7.972656 0.1875 6.359375 0.1875 Z M 6.359375 0.1875 "/></g></g><g style="fill:rgb(3.919983%,14.898682%,20.779419%);fill-opacity:1;"><g transform="translate(163.797133, 37.389406)"><path style="stroke:none;" d="M 3.6875 -9.171875 L 0.0625 -9.171875 L 0.0625 -11.3125 L 9.921875 -11.3125 L 9.921875 -9.171875 L 6.296875 -9.171875 L 6.296875 0 L 3.6875 0 Z M 3.6875 -9.171875 "/></g></g><g style="fill:rgb(3.919983%,14.898682%,20.779419%);fill-opacity:1;"><g transform="translate(178.980413, 37.389406)"><path style="stroke:none;" d="M 3.6875 -9.171875 L 0.0625 -9.171875 L 0.0625 -11.3125 L 9.921875 -11.3125 L 9.921875 -9.171875 L 6.296875 -9.171875 L 6.296875 0 L 3.6875 0 Z M 3.6875 -9.171875 "/></g></g><g style="fill:rgb(3.919983%,14.898682%,20.779419%);fill-opacity:1;"><g transform="translate(194.163693, 37.389406)"><path style="stroke:none;" d="M 1.34375 -11.3125 L 3.953125 -11.3125 L 3.953125 -2.125 L 9.625 -2.125 L 9.625 0 L 1.34375 0 Z M 1.34375 -11.3125 "/></g></g><g style="fill:rgb(100%,24.708557%,24.708557%);fill-opacity:1;"><g transform="translate(76.370267, 48.725537)"><path style="stroke:none;" d="M 4.171875 0 L 3.109375 -1.53125 L 1.9375 -1.53125 L 1.9375 0 L 0.65625 0 L 0.65625 -5.53125 L 3.046875 -5.53125 C 3.535156 -5.53125 3.957031 -5.445312 4.3125 -5.28125 C 4.675781 -5.113281 4.953125 -4.878906 5.140625 -4.578125 C 5.335938 -4.285156 5.4375 -3.929688 5.4375 -3.515625 C 5.4375 -3.109375 5.335938 -2.753906 5.140625 -2.453125 C 4.953125 -2.160156 4.675781 -1.9375 4.3125 -1.78125 L 5.546875 0 Z M 4.15625 -3.515625 C 4.15625 -3.828125 4.050781 -4.066406 3.84375 -4.234375 C 3.644531 -4.398438 3.351562 -4.484375 2.96875 -4.484375 L 1.9375 -4.484375 L 1.9375 -2.5625 L 2.96875 -2.5625 C 3.351562 -2.5625 3.644531 -2.644531 3.84375 -2.8125 C 4.050781 -2.976562 4.15625 -3.210938 4.15625 -3.515625 Z M 4.15625 -3.515625 "/></g></g><g style="fill:rgb(100%,24.708557%,24.708557%);fill-opacity:1;"><g transform="translate(85.277953, 48.725537)"><path style="stroke:none;" d="M 4.9375 -1.03125 L 4.9375 0 L 0.65625 0 L 0.65625 -5.53125 L 4.828125 -5.53125 L 4.828125 -4.5 L 1.921875 -4.5 L 1.921875 -3.296875 L 4.484375 -3.296875 L 4.484375 -2.296875 L 1.921875 -2.296875 L 1.921875 -1.03125 Z M 4.9375 -1.03125 "/></g></g><g style="fill:rgb(100%,24.708557%,24.708557%);fill-opacity:1;"><g transform="translate(93.680237, 48.725537)"><path style="stroke:none;" d="M 4.296875 -1.1875 L 1.734375 -1.1875 L 1.234375 0 L -0.078125 0 L 2.390625 -5.53125 L 3.65625 -5.53125 L 6.125 0 L 4.78125 0 Z M 3.890625 -2.15625 L 3.015625 -4.265625 L 2.140625 -2.15625 Z M 3.890625 -2.15625 "/></g></g><g style="fill:rgb(100%,24.708557%,24.708557%);fill-opacity:1;"><g transform="translate(102.832721, 48.725537)"><path style="stroke:none;" d="M 3.296875 0.09375 C 2.734375 0.09375 2.222656 -0.0234375 1.765625 -0.265625 C 1.316406 -0.515625 0.960938 -0.851562 0.703125 -1.28125 C 0.441406 -1.71875 0.3125 -2.210938 0.3125 -2.765625 C 0.3125 -3.304688 0.441406 -3.796875 0.703125 -4.234375 C 0.960938 -4.671875 1.316406 -5.007812 1.765625 -5.25 C 2.222656 -5.5 2.738281 -5.625 3.3125 -5.625 C 3.789062 -5.625 4.222656 -5.535156 4.609375 -5.359375 C 4.992188 -5.191406 5.316406 -4.953125 5.578125 -4.640625 L 4.765625 -3.875 C 4.390625 -4.3125 3.925781 -4.53125 3.375 -4.53125 C 3.03125 -4.53125 2.722656 -4.453125 2.453125 -4.296875 C 2.179688 -4.148438 1.972656 -3.941406 1.828125 -3.671875 C 1.679688 -3.410156 1.609375 -3.109375 1.609375 -2.765625 C 1.609375 -2.421875 1.679688 -2.113281 1.828125 -1.84375 C 1.972656 -1.570312 2.179688 -1.363281 2.453125 -1.21875 C 2.722656 -1.070312 3.03125 -1 3.375 -1 C 3.925781 -1 4.390625 -1.21875 4.765625 -1.65625 L 5.578125 -0.890625 C 5.316406 -0.566406 4.988281 -0.320312 4.59375 -0.15625 C 4.207031 0.0078125 3.773438 0.09375 3.296875 0.09375 Z M 3.296875 0.09375 "/></g></g><g style="fill:rgb(100%,24.708557%,24.708557%);fill-opacity:1;"><g transform="translate(111.724612, 48.725537)"><path style="stroke:none;" d="M 5.71875 -5.53125 L 5.71875 0 L 4.4375 0 L 4.4375 -2.265625 L 1.9375 -2.265625 L 1.9375 0 L 0.65625 0 L 0.65625 -5.53125 L 1.9375 -5.53125 L 1.9375 -3.34375 L 4.4375 -3.34375 L 4.4375 -5.53125 Z M 5.71875 -5.53125 "/></g></g><g style="fill:rgb(100%,24.708557%,24.708557%);fill-opacity:1;"><g transform="translate(121.208775, 48.725537)"><path style="stroke:none;" d=""/></g></g><g style="fill:rgb(100%,24.708557%,24.708557%);fill-opacity:1;"><g transform="translate(126.547062, 48.725537)"><path style="stroke:none;" d="M 5.71875 -5.53125 L 5.71875 0 L 4.4375 0 L 4.4375 -2.265625 L 1.9375 -2.265625 L 1.9375 0 L 0.65625 0 L 0.65625 -5.53125 L 1.9375 -5.53125 L 1.9375 -3.34375 L 4.4375 -3.34375 L 4.4375 -5.53125 Z M 5.71875 -5.53125 "/></g></g><g style="fill:rgb(100%,24.708557%,24.708557%);fill-opacity:1;"><g transform="translate(136.031225, 48.725537)"><path style="stroke:none;" d="M 0.65625 -5.53125 L 1.9375 -5.53125 L 1.9375 0 L 0.65625 0 Z M 0.65625 -5.53125 "/></g></g><g style="fill:rgb(100%,24.708557%,24.708557%);fill-opacity:1;"><g transform="translate(141.724876, 48.725537)"><path style="stroke:none;" d="M 4.390625 -2.84375 L 5.5625 -2.84375 L 5.5625 -0.609375 C 5.257812 -0.378906 4.910156 -0.203125 4.515625 -0.078125 C 4.117188 0.0351562 3.722656 0.09375 3.328125 0.09375 C 2.753906 0.09375 2.238281 -0.0234375 1.78125 -0.265625 C 1.320312 -0.515625 0.960938 -0.851562 0.703125 -1.28125 C 0.441406 -1.71875 0.3125 -2.210938 0.3125 -2.765625 C 0.3125 -3.304688 0.441406 -3.796875 0.703125 -4.234375 C 0.960938 -4.671875 1.320312 -5.007812 1.78125 -5.25 C 2.25 -5.5 2.769531 -5.625 3.34375 -5.625 C 3.832031 -5.625 4.269531 -5.539062 4.65625 -5.375 C 5.050781 -5.207031 5.382812 -4.96875 5.65625 -4.65625 L 4.84375 -3.90625 C 4.445312 -4.320312 3.96875 -4.53125 3.40625 -4.53125 C 3.050781 -4.53125 2.738281 -4.457031 2.46875 -4.3125 C 2.195312 -4.164062 1.984375 -3.957031 1.828125 -3.6875 C 1.679688 -3.414062 1.609375 -3.109375 1.609375 -2.765625 C 1.609375 -2.421875 1.679688 -2.113281 1.828125 -1.84375 C 1.984375 -1.570312 2.195312 -1.363281 2.46875 -1.21875 C 2.738281 -1.070312 3.046875 -1 3.390625 -1 C 3.765625 -1 4.097656 -1.078125 4.390625 -1.234375 Z M 4.390625 -2.84375 "/></g></g><g style="fill:rgb(100%,24.708557%,24.708557%);fill-opacity:1;"><g transform="translate(150.916845, 48.725537)"><path style="stroke:none;" d="M 5.71875 -5.53125 L 5.71875 0 L 4.4375 0 L 4.4375 -2.265625 L 1.9375 -2.265625 L 1.9375 0 L 0.65625 0 L 0.65625 -5.53125 L 1.9375 -5.53125 L 1.9375 -3.34375 L 4.4375 -3.34375 L 4.4375 -5.53125 Z M 5.71875 -5.53125 "/></g></g><g style="fill:rgb(100%,24.708557%,24.708557%);fill-opacity:1;"><g transform="translate(160.401008, 48.725537)"><path style="stroke:none;" d="M 4.9375 -1.03125 L 4.9375 0 L 0.65625 0 L 0.65625 -5.53125 L 4.828125 -5.53125 L 4.828125 -4.5 L 1.921875 -4.5 L 1.921875 -3.296875 L 4.484375 -3.296875 L 4.484375 -2.296875 L 1.921875 -2.296875 L 1.921875 -1.03125 Z M 4.9375 -1.03125 "/></g></g><g style="fill:rgb(100%,24.708557%,24.708557%);fill-opacity:1;"><g transform="translate(168.803295, 48.725537)"><path style="stroke:none;" d="M 4.171875 0 L 3.109375 -1.53125 L 1.9375 -1.53125 L 1.9375 0 L 0.65625 0 L 0.65625 -5.53125 L 3.046875 -5.53125 C 3.535156 -5.53125 3.957031 -5.445312 4.3125 -5.28125 C 4.675781 -5.113281 4.953125 -4.878906 5.140625 -4.578125 C 5.335938 -4.285156 5.4375 -3.929688 5.4375 -3.515625 C 5.4375 -3.109375 5.335938 -2.753906 5.140625 -2.453125 C 4.953125 -2.160156 4.675781 -1.9375 4.3125 -1.78125 L 5.546875 0 Z M 4.15625 -3.515625 C 4.15625 -3.828125 4.050781 -4.066406 3.84375 -4.234375 C 3.644531 -4.398438 3.351562 -4.484375 2.96875 -4.484375 L 1.9375 -4.484375 L 1.9375 -2.5625 L 2.96875 -2.5625 C 3.351562 -2.5625 3.644531 -2.644531 3.84375 -2.8125 C 4.050781 -2.976562 4.15625 -3.210938 4.15625 -3.515625 Z M 4.15625 -3.515625 "/></g></g></g></svg>